<?xml version="1.0" encoding="UTF-8"?><svg xmlns="http://www.w3.org/2000/svg" xmlns:xlink="http://www.w3.org/1999/xlink" fill-opacity="1" color-rendering="auto" color-interpolation="auto" text-rendering="auto" stroke="black" stroke-linecap="square" width="1505" stroke-miterlimit="10" shape-rendering="auto" stroke-opacity="1" fill="black" stroke-dasharray="none" font-weight="normal" stroke-width="1" height="741" font-family="'Dialog'" font-style="normal" stroke-linejoin="miter" font-size="12px" stroke-dashoffset="0" image-rendering="auto">
  <!--Generated by ySVG 2.5-->
  <defs id="genericDefs"/>
  <g>
    <defs id="defs1">
      <clipPath clipPathUnits="userSpaceOnUse" id="clipPath1">
        <path d="M0 0 L1505 0 L1505 741 L0 741 L0 0 Z"/>
      </clipPath>
      <clipPath clipPathUnits="userSpaceOnUse" id="clipPath2">
        <path d="M-348 9 L1157 9 L1157 750 L-348 750 L-348 9 Z"/>
      </clipPath>
    </defs>
    <g fill="white" text-rendering="geometricPrecision" shape-rendering="geometricPrecision" transform="translate(348,-9)" stroke="white">
      <rect x="-348" width="1505" height="741" y="9" clip-path="url(#clipPath2)" stroke="none"/>
    </g>
    <g fill="rgb(204,255,204)" text-rendering="geometricPrecision" shape-rendering="geometricPrecision" transform="matrix(1,0,0,1,348,-9)" stroke="rgb(204,255,204)">
      <rect x="497.743" y="287.3765" clip-path="url(#clipPath2)" width="291" rx="4" ry="4" height="104.4215" stroke="none"/>
    </g>
    <g font-size="32px" stroke-linecap="butt" transform="matrix(1,0,0,1,348,-9)" text-rendering="geometricPrecision" shape-rendering="geometricPrecision" font-weight="bold" stroke-miterlimit="1.45">
      <text x="544.5945" xml:space="preserve" y="332.0403" clip-path="url(#clipPath2)" stroke="none">Monitoring</text>
      <text x="567.0711" xml:space="preserve" y="369.2903" clip-path="url(#clipPath2)" stroke="none">Systems</text>
      <rect x="497.743" y="287.3765" clip-path="url(#clipPath2)" fill="none" width="291" rx="4" ry="4" height="104.4215" stroke-width="5"/>
    </g>
    <g fill="rgb(204,255,204)" text-rendering="geometricPrecision" shape-rendering="geometricPrecision" transform="matrix(1,0,0,1,348,-9)" stroke="rgb(204,255,204)">
      <rect x="477.0621" y="304.7137" clip-path="url(#clipPath2)" width="291" rx="4" ry="4" height="104.4215" stroke="none"/>
    </g>
    <g font-size="32px" stroke-linecap="butt" transform="matrix(1,0,0,1,348,-9)" text-rendering="geometricPrecision" shape-rendering="geometricPrecision" font-weight="bold" stroke-miterlimit="1.45">
      <text x="523.9136" xml:space="preserve" y="349.3776" clip-path="url(#clipPath2)" stroke="none">Monitoring</text>
      <text x="546.3902" xml:space="preserve" y="386.6276" clip-path="url(#clipPath2)" stroke="none">Systems</text>
      <rect x="477.0621" y="304.7137" clip-path="url(#clipPath2)" fill="none" width="291" rx="4" ry="4" height="104.4215" stroke-width="5"/>
    </g>
    <g fill="rgb(255,255,153)" text-rendering="geometricPrecision" shape-rendering="geometricPrecision" transform="matrix(1,0,0,1,348,-9)" stroke="rgb(255,255,153)">
      <rect x="336.1802" y="576.4895" clip-path="url(#clipPath2)" width="228.9" rx="4" ry="4" height="104.4215" stroke="none"/>
    </g>
    <g font-size="32px" stroke-linecap="butt" transform="matrix(1,0,0,1,348,-9)" text-rendering="geometricPrecision" shape-rendering="geometricPrecision" font-weight="bold" stroke-miterlimit="1.45">
      <text x="367.9662" xml:space="preserve" y="621.1533" clip-path="url(#clipPath2)" stroke="none">Managed</text>
      <text x="367.3256" xml:space="preserve" y="658.4033" clip-path="url(#clipPath2)" stroke="none">Resource</text>
      <rect x="336.1802" y="576.4895" clip-path="url(#clipPath2)" fill="none" width="228.9" rx="4" ry="4" height="104.4215" stroke-width="5"/>
    </g>
    <g fill="rgb(204,255,255)" text-rendering="geometricPrecision" shape-rendering="geometricPrecision" transform="matrix(1,0,0,1,348,-9)" stroke="rgb(204,255,255)">
      <rect x="-265.4347" y="30.5222" clip-path="url(#clipPath2)" width="243" rx="4" ry="4" height="104.4215" stroke="none"/>
    </g>
    <g font-size="32px" stroke-linecap="butt" transform="matrix(1,0,0,1,348,-9)" text-rendering="geometricPrecision" shape-rendering="geometricPrecision" font-weight="bold" stroke-miterlimit="1.45">
      <text x="-226.2003" xml:space="preserve" y="75.1861" clip-path="url(#clipPath2)" stroke="none">Architect</text>
      <text x="-230.9113" xml:space="preserve" y="112.4361" clip-path="url(#clipPath2)" stroke="none">Inventory</text>
      <rect x="-265.4347" y="30.5222" clip-path="url(#clipPath2)" fill="none" width="243" rx="4" ry="4" height="104.4215" stroke-width="5"/>
    </g>
    <g fill="rgb(204,255,255)" text-rendering="geometricPrecision" shape-rendering="geometricPrecision" transform="matrix(1,0,0,1,348,-9)" stroke="rgb(204,255,255)">
      <rect x="43.6843" y="30.5222" clip-path="url(#clipPath2)" width="243" rx="4" ry="4" height="104.4215" stroke="none"/>
    </g>
    <g font-size="32px" stroke-linecap="butt" transform="matrix(1,0,0,1,348,-9)" text-rendering="geometricPrecision" shape-rendering="geometricPrecision" font-weight="bold" stroke-miterlimit="1.45">
      <text x="82.9187" xml:space="preserve" y="75.1861" clip-path="url(#clipPath2)" stroke="none">Architect</text>
      <text x="86.0828" xml:space="preserve" y="112.4361" clip-path="url(#clipPath2)" stroke="none">Manager</text>
      <rect x="43.6843" y="30.5222" clip-path="url(#clipPath2)" fill="none" width="243" rx="4" ry="4" height="104.4215" stroke-width="5"/>
    </g>
    <g fill="rgb(204,255,255)" text-rendering="geometricPrecision" shape-rendering="geometricPrecision" transform="matrix(1,0,0,1,348,-9)" stroke="rgb(204,255,255)">
      <rect x="733.627" y="33.8992" clip-path="url(#clipPath2)" width="243" rx="4" ry="4" height="104.4215" stroke="none"/>
    </g>
    <g font-size="32px" stroke-linecap="butt" transform="matrix(1,0,0,1,348,-9)" text-rendering="geometricPrecision" shape-rendering="geometricPrecision" font-weight="bold" stroke-miterlimit="1.45">
      <text x="772.8615" xml:space="preserve" y="78.5631" clip-path="url(#clipPath2)" stroke="none">Architect</text>
      <text x="784.8068" xml:space="preserve" y="115.8131" clip-path="url(#clipPath2)" stroke="none">Monitor</text>
      <rect x="733.627" y="33.8992" clip-path="url(#clipPath2)" fill="none" width="243" rx="4" ry="4" height="104.4215" stroke-width="5"/>
    </g>
    <g fill="rgb(204,255,204)" text-rendering="geometricPrecision" shape-rendering="geometricPrecision" transform="matrix(1,0,0,1,348,-9)" stroke="rgb(204,255,204)">
      <rect x="457.8746" y="323.5444" clip-path="url(#clipPath2)" width="291" rx="4" ry="4" height="104.4215" stroke="none"/>
    </g>
    <g font-size="32px" stroke-linecap="butt" transform="matrix(1,0,0,1,348,-9)" text-rendering="geometricPrecision" shape-rendering="geometricPrecision" font-weight="bold" stroke-miterlimit="1.45">
      <text x="504.7262" xml:space="preserve" y="368.2082" clip-path="url(#clipPath2)" stroke="none">Monitoring</text>
      <text x="527.2028" xml:space="preserve" y="405.4582" clip-path="url(#clipPath2)" stroke="none">Systems</text>
      <rect x="457.8746" y="323.5444" clip-path="url(#clipPath2)" fill="none" width="291" rx="4" ry="4" height="104.4215" stroke-width="5"/>
    </g>
    <g fill="rgb(204,255,204)" text-rendering="geometricPrecision" shape-rendering="geometricPrecision" transform="matrix(1,0,0,1,348,-9)" stroke="rgb(204,255,204)">
      <rect x="62.5452" y="284.8909" clip-path="url(#clipPath2)" width="291" rx="4" ry="4" height="104.4215" stroke="none"/>
    </g>
    <g font-size="32px" stroke-linecap="butt" transform="matrix(1,0,0,1,348,-9)" text-rendering="geometricPrecision" shape-rendering="geometricPrecision" font-weight="bold" stroke-miterlimit="1.45">
      <text x="82.9124" xml:space="preserve" y="348.1798" clip-path="url(#clipPath2)" stroke="none">Orchestrators</text>
      <rect x="62.5452" y="284.8909" clip-path="url(#clipPath2)" fill="none" width="291" rx="4" ry="4" height="104.4215" stroke-width="5"/>
    </g>
    <g fill="rgb(255,255,153)" text-rendering="geometricPrecision" shape-rendering="geometricPrecision" transform="matrix(1,0,0,1,348,-9)" stroke="rgb(255,255,153)">
      <rect x="318.2371" y="596.0238" clip-path="url(#clipPath2)" width="228.9" rx="4" ry="4" height="104.4215" stroke="none"/>
    </g>
    <g font-size="32px" stroke-linecap="butt" transform="matrix(1,0,0,1,348,-9)" text-rendering="geometricPrecision" shape-rendering="geometricPrecision" font-weight="bold" stroke-miterlimit="1.45">
      <text x="350.0231" xml:space="preserve" y="640.6877" clip-path="url(#clipPath2)" stroke="none">Managed</text>
      <text x="349.3824" xml:space="preserve" y="677.9377" clip-path="url(#clipPath2)" stroke="none">Resource</text>
      <rect x="318.2371" y="596.0238" clip-path="url(#clipPath2)" fill="none" width="228.9" rx="4" ry="4" height="104.4215" stroke-width="5"/>
    </g>
    <g fill="rgb(255,255,153)" text-rendering="geometricPrecision" shape-rendering="geometricPrecision" transform="matrix(1,0,0,1,348,-9)" stroke="rgb(255,255,153)">
      <rect x="299.1894" y="613.1895" clip-path="url(#clipPath2)" width="228.9" rx="4" ry="4" height="104.4215" stroke="none"/>
    </g>
    <g font-size="32px" stroke-linecap="butt" transform="matrix(1,0,0,1,348,-9)" text-rendering="geometricPrecision" shape-rendering="geometricPrecision" font-weight="bold" stroke-miterlimit="1.45">
      <text x="330.9753" xml:space="preserve" y="657.8534" clip-path="url(#clipPath2)" stroke="none">Managed</text>
      <text x="330.3347" xml:space="preserve" y="695.1034" clip-path="url(#clipPath2)" stroke="none">Resource</text>
      <rect x="299.1894" y="613.1895" clip-path="url(#clipPath2)" fill="none" width="228.9" rx="4" ry="4" height="104.4215" stroke-width="5"/>
    </g>
    <g fill="rgb(255,255,153)" text-rendering="geometricPrecision" shape-rendering="geometricPrecision" transform="matrix(1,0,0,1,348,-9)" stroke="rgb(255,255,153)">
      <rect x="279.9417" y="629.7739" clip-path="url(#clipPath2)" width="228.9" rx="4" ry="4" height="104.4215" stroke="none"/>
    </g>
    <g font-size="32px" stroke-linecap="butt" transform="matrix(1,0,0,1,348,-9)" text-rendering="geometricPrecision" shape-rendering="geometricPrecision" font-weight="bold" stroke-miterlimit="1.45">
      <text x="311.7276" xml:space="preserve" y="674.4377" clip-path="url(#clipPath2)" stroke="none">Managed</text>
      <text x="301.5636" xml:space="preserve" y="711.6877" clip-path="url(#clipPath2)" stroke="none">Resources</text>
      <rect x="279.9417" y="629.7739" clip-path="url(#clipPath2)" fill="none" width="228.9" rx="4" ry="4" height="104.4215" stroke-width="5"/>
    </g>
    <g fill="rgb(204,255,204)" text-rendering="geometricPrecision" shape-rendering="geometricPrecision" transform="matrix(1,0,0,1,348,-9)" stroke="rgb(204,255,204)">
      <rect x="40.832" y="304.7137" clip-path="url(#clipPath2)" width="291" rx="4" ry="4" height="104.4215" stroke="none"/>
    </g>
    <g font-size="32px" stroke-linecap="butt" transform="matrix(1,0,0,1,348,-9)" text-rendering="geometricPrecision" shape-rendering="geometricPrecision" font-weight="bold" stroke-miterlimit="1.45">
      <text x="61.1992" xml:space="preserve" y="368.0026" clip-path="url(#clipPath2)" stroke="none">Orchestrators</text>
      <rect x="40.832" y="304.7137" clip-path="url(#clipPath2)" fill="none" width="291" rx="4" ry="4" height="104.4215" stroke-width="5"/>
    </g>
    <g fill="rgb(204,255,204)" text-rendering="geometricPrecision" shape-rendering="geometricPrecision" transform="matrix(1,0,0,1,348,-9)" stroke="rgb(204,255,204)">
      <rect x="19.6843" y="330.148" clip-path="url(#clipPath2)" width="291" rx="4" ry="4" height="104.4215" stroke="none"/>
    </g>
    <g font-size="32px" stroke-linecap="butt" transform="matrix(1,0,0,1,348,-9)" text-rendering="geometricPrecision" shape-rendering="geometricPrecision" font-weight="bold" stroke-miterlimit="1.45">
      <text x="40.0515" xml:space="preserve" y="393.4369" clip-path="url(#clipPath2)" stroke="none">Orchestrators</text>
      <rect x="19.6843" y="330.148" clip-path="url(#clipPath2)" fill="none" width="291" rx="4" ry="4" height="104.4215" stroke-width="5"/>
      <text x="-328.7393" font-size="22px" y="477.9245" clip-path="url(#clipPath2)" fill="gray" stroke="none" xml:space="preserve">Salt, Ansible, Terraform</text>
      <text x="-330.9307" font-size="22px" y="503.5339" clip-path="url(#clipPath2)" fill="gray" stroke="none" xml:space="preserve">Kubernetes, OpenStack,</text>
      <text x="-302.2275" font-size="22px" y="529.1432" clip-path="url(#clipPath2)" fill="gray" stroke="none" xml:space="preserve">Heat, Helm, Jenkins</text>
      <text x="852.9095" font-size="22px" y="403.8254" clip-path="url(#clipPath2)" fill="gray" stroke="none" xml:space="preserve">Prometheus, Graphite,</text>
      <text x="848.7094" font-size="22px" y="429.4348" clip-path="url(#clipPath2)" fill="gray" stroke="none" xml:space="preserve">Influxdb, Elasticsearch,</text>
      <text x="906.0834" font-size="22px" y="455.0441" clip-path="url(#clipPath2)" fill="gray" stroke="none" xml:space="preserve">Sensu, Nagios</text>
      <text x="647.8671" font-size="22px" y="676.7961" clip-path="url(#clipPath2)" fill="gray" stroke="none" xml:space="preserve">Software resources, cloud resources,</text>
      <text x="633.5853" font-size="22px" y="702.4055" clip-path="url(#clipPath2)" fill="gray" stroke="none" xml:space="preserve">Containers, lambdas, hardware devices</text>
      <path fill="none" d="M788.7809 344.1789 L808.8804 339.1994 L827.6474 333.1599 L845.0426 326.0702 L861.0659 317.9302 L875.7175 308.7399 L888.9972 298.4994 L900.9051 287.2086 L911.4412 274.8676 L920.6054 261.4764 L928.3978 247.0349 L934.8184 231.5431 L939.8672 215.0011 L943.5442 197.4089 L945.8493 178.7664 L946.7827 159.0736 L946.6929 154.8269" stroke-width="5" clip-path="url(#clipPath2)"/>
      <path d="M946.3441 138.3306 L937.7266 156.5168 L955.7226 156.1363 Z" stroke-width="5" clip-path="url(#clipPath2)" stroke="none"/>
      <text x="627.7272" font-size="22px" y="213.7838" clip-path="url(#clipPath2)" font-family="sans-serif" stroke="none" xml:space="preserve">Process and display</text>
      <text x="600.5602" font-size="22px" y="239.3931" clip-path="url(#clipPath2)" font-family="sans-serif" stroke="none" xml:space="preserve">orchestrator based data</text>
      <path fill="none" d="M286.6753 47.7553 L288.8898 47.2181 L330.1155 39.0549 L371.3365 32.7292 L412.5529 28.2411 L453.7645 25.5905 L494.9713 24.7774 L536.1735 25.8018 L577.371 28.6637 L618.5637 33.3632 L659.7518 39.9002 L700.9351 48.2748 L717.6138 52.411" stroke-width="5" clip-path="url(#clipPath2)"/>
      <path d="M733.6287 56.3826 L718.3242 43.3146 L713.9916 60.7854 Z" stroke-width="5" clip-path="url(#clipPath2)" stroke="none"/>
      <text x="390.7535" font-size="22px" y="83.4472" clip-path="url(#clipPath2)" font-family="sans-serif" stroke="none" xml:space="preserve">Process and display</text>
      <text x="363.5865" font-size="22px" y="109.0566" clip-path="url(#clipPath2)" font-family="sans-serif" stroke="none" xml:space="preserve">orchestrator based data</text>
      <path fill="none" d="M565.0842 628.7002 L591.0176 610.2964 L602.528 600.3781 L613.0675 589.9823 L622.636 579.1089 L631.2338 567.7581 L638.8605 555.9296 L645.5164 543.6235 L651.2014 530.84 L655.9155 517.5788 L659.6587 503.8401 L662.431 489.6238 L664.2324 474.93 L665.0629 459.7586 L664.4607 444.4704" stroke-width="5" clip-path="url(#clipPath2)"/>
      <path d="M663.8112 427.9832 L655.5267 446.3235 L673.5128 445.615 Z" stroke-width="5" clip-path="url(#clipPath2)" stroke="none"/>
      <text x="694.778" font-size="22px" y="535.5329" clip-path="url(#clipPath2)" font-family="sans-serif" stroke="none" xml:space="preserve">Resources emit metrics,</text>
      <text x="678.2511" font-size="22px" y="561.1423" clip-path="url(#clipPath2)" font-family="sans-serif" stroke="none" xml:space="preserve">log events, process alarms</text>
      <path fill="none" d="M144.5968 268.9468 L141.8769 258.8983 L137.4311 233.106 L135.577 207.5224 L136.3148 182.1474 L139.6444 156.9809 L141.0687 150.9777" stroke-width="5" clip-path="url(#clipPath2)"/>
      <path d="M148.9078 284.8737 L152.8923 265.1474 L135.5175 269.8503 Z" stroke-width="5" clip-path="url(#clipPath2)" stroke="none"/>
      <path d="M144.8777 134.9234 L131.9655 150.3595 L149.4794 154.5148 Z" stroke-width="5" clip-path="url(#clipPath2)" stroke="none"/>
      <text x="185.4846" font-size="22px" y="203.238" clip-path="url(#clipPath2)" font-family="sans-serif" stroke="none" xml:space="preserve">Command orchestrators</text>
      <text x="158.4626" font-size="22px" y="228.8474" clip-path="url(#clipPath2)" font-family="sans-serif" stroke="none" xml:space="preserve">and retreive resource states</text>
      <path fill="none" d="M-143.9347 134.9499 L-139.1479 165.0514 L-132.6528 193.2833 L-124.4495 219.6457 L-114.5381 244.1385 L-102.9183 266.7617 L-89.5904 287.5154 L-74.5542 306.3996 L-57.8099 323.4142 L-39.3573 338.5593 L-19.1964 351.8348 L2.6726 363.2407 L4.3686 363.9267" stroke-width="5" clip-path="url(#clipPath2)"/>
      <path d="M19.6648 370.1136 L6.3528 355.0209 L-0.3966 371.7076 Z" stroke-width="5" clip-path="url(#clipPath2)" stroke="none"/>
      <text x="-302.1245" font-size="22px" y="326.6667" clip-path="url(#clipPath2)" font-family="sans-serif" stroke="none" xml:space="preserve">Provide context</text>
      <text x="-329.2539" font-size="22px" y="352.2761" clip-path="url(#clipPath2)" font-family="sans-serif" stroke="none" xml:space="preserve">to the orchestrators</text>
      <path fill="none" d="M263.4817 695.8287 L252.8216 696.2795 L218.8767 694.3199 L203.3569 692.0056 L188.8056 688.8016 L175.2227 684.7078 L162.6082 679.7244 L150.9623 673.8512 L140.2847 667.0883 L130.5757 659.4357 L121.835 650.8934 L114.0628 641.4614 L107.2591 631.1397 L101.4238 619.9283 L96.557 607.8272 L92.6586 594.8364 L89.7287 580.9559 L87.7672 566.1856 L86.7742 550.5256 L87.6935 516.5366 L92.4867 478.9888 L101.1536 437.8821 L102.0721 434.6107" stroke-width="5" clip-path="url(#clipPath2)"/>
      <path d="M279.9669 695.1316 L261.6028 686.9001 L262.3632 704.884 Z" stroke-width="5" clip-path="url(#clipPath2)" stroke="none"/>
      <text x="-215.8451" font-size="22px" y="616.3436" clip-path="url(#clipPath2)" font-family="sans-serif" stroke="none" xml:space="preserve">Command resources</text>
      <text x="-242.6361" font-size="22px" y="641.9529" clip-path="url(#clipPath2)" font-family="sans-serif" stroke="none" xml:space="preserve">to project desired states</text>
      <path fill="none" d="M161.1953 450.5862 L160.0441 455.2068 L156.5457 475.0294 L154.689 494.0438 L154.4741 512.2496 L155.901 529.6472 L158.9697 546.2363 L163.6802 562.017 L170.0325 576.9893 L178.0265 591.1533 L187.6624 604.5088 L198.94 617.056 L211.8594 628.7947 L226.4206 639.725 L242.6235 649.847 L260.4683 659.1606 L279.9168 667.6492" stroke-width="5" clip-path="url(#clipPath2)"/>
      <path d="M165.1843 434.5757 L152.0996 449.8659 L169.5657 454.2176 Z" stroke-width="5" clip-path="url(#clipPath2)" stroke="none"/>
      <text x="212.534" font-size="22px" y="514.6395" clip-path="url(#clipPath2)" font-family="sans-serif" stroke="none" xml:space="preserve">Retreive state</text>
      <text x="191.0926" font-size="22px" y="540.2489" clip-path="url(#clipPath2)" font-family="sans-serif" stroke="none" xml:space="preserve">projection results</text>
    </g>
    <g stroke-linecap="butt" transform="matrix(1,0,0,1,348,-9)" fill="gray" text-rendering="geometricPrecision" shape-rendering="geometricPrecision" stroke-dasharray="18,6" stroke="gray" stroke-width="3" stroke-miterlimit="1.45">
      <path fill="none" d="M-34.653 448.0793 L19.6729 430.2131" clip-path="url(#clipPath2)"/>
      <path fill="none" d="M848.5868 387.7194 L788.7534 373.6946" clip-path="url(#clipPath2)"/>
      <path fill="none" d="M625.9366 676.8828 L565.1187 660.1671" clip-path="url(#clipPath2)"/>
    </g>
  </g>
</svg>
