<?xml version="1.0" encoding="UTF-8"?><svg xmlns="http://www.w3.org/2000/svg" xmlns:xlink="http://www.w3.org/1999/xlink" fill-opacity="1" color-rendering="auto" color-interpolation="auto" text-rendering="auto" stroke="black" stroke-linecap="square" width="1194" stroke-miterlimit="10" shape-rendering="auto" stroke-opacity="1" fill="black" stroke-dasharray="none" font-weight="normal" stroke-width="1" height="900" font-family="'Dialog'" font-style="normal" stroke-linejoin="miter" font-size="12px" stroke-dashoffset="0" image-rendering="auto">
  <!--Generated by ySVG 2.5-->
  <defs id="genericDefs"/>
  <g>
    <defs id="defs1">
      <clipPath clipPathUnits="userSpaceOnUse" id="clipPath1">
        <path d="M0 0 L1194 0 L1194 900 L0 900 L0 0 Z"/>
      </clipPath>
      <clipPath clipPathUnits="userSpaceOnUse" id="clipPath2">
        <path d="M-521 -98 L673 -98 L673 802 L-521 802 L-521 -98 Z"/>
      </clipPath>
      <clipPath clipPathUnits="userSpaceOnUse" id="clipPath3">
        <path d="M572.3371 -19.8925 L572.3371 1174.1075 L-327.6629 1174.1075 L-327.6629 -19.8925 L572.3371 -19.8925 Z"/>
      </clipPath>
      <clipPath clipPathUnits="userSpaceOnUse" id="clipPath4">
        <path d="M238.8072 -19.8925 L238.8072 1174.1075 L-661.1928 1174.1075 L-661.1928 -19.8925 L238.8072 -19.8925 Z"/>
      </clipPath>
    </defs>
    <g fill="white" text-rendering="geometricPrecision" shape-rendering="geometricPrecision" transform="translate(521,98)" stroke="white">
      <rect x="-521" width="1194" height="900" y="-98" clip-path="url(#clipPath2)" stroke="none"/>
    </g>
    <g font-size="32px" stroke-linecap="butt" transform="matrix(-0,-1,1,-0,19.8925,572.3371)" text-rendering="geometricPrecision" shape-rendering="geometricPrecision" font-weight="bold" stroke-miterlimit="1.45">
      <text x="2" xml:space="preserve" y="31.7031" clip-path="url(#clipPath3)" stroke="none">Salt Master</text>
    </g>
    <g text-rendering="geometricPrecision" stroke-miterlimit="1.45" stroke-width="5" shape-rendering="geometricPrecision" transform="matrix(1,0,0,1,521,98)" stroke-linecap="butt">
      <rect x="-505.1075" y="210.1233" clip-path="url(#clipPath2)" fill="none" width="1162.2327" rx="4" ry="4" height="317.1151"/>
    </g>
    <g font-size="32px" stroke-linecap="butt" transform="matrix(-0,-1,1,-0,19.8925,238.8072)" text-rendering="geometricPrecision" shape-rendering="geometricPrecision" font-weight="bold" stroke-miterlimit="1.45">
      <text x="2" xml:space="preserve" y="31.7031" clip-path="url(#clipPath4)" stroke="none">Architect</text>
    </g>
    <g text-rendering="geometricPrecision" stroke-miterlimit="1.45" stroke-width="5" shape-rendering="geometricPrecision" transform="matrix(1,0,0,1,521,98)" stroke-linecap="butt">
      <rect x="-505.1075" y="-82.2476" clip-path="url(#clipPath2)" fill="none" width="1162.2327" rx="4" ry="4" height="277.5783"/>
    </g>
    <g fill="rgb(255,255,153)" text-rendering="geometricPrecision" shape-rendering="geometricPrecision" transform="matrix(1,0,0,1,521,98)" stroke="rgb(255,255,153)">
      <rect x="-72.3414" y="628.9617" clip-path="url(#clipPath2)" width="228.9" rx="4" ry="4" height="104.4215" stroke="none"/>
    </g>
    <g font-size="32px" stroke-linecap="butt" transform="matrix(1,0,0,1,521,98)" text-rendering="geometricPrecision" shape-rendering="geometricPrecision" font-weight="bold" stroke-miterlimit="1.45">
      <text x="-40.5555" xml:space="preserve" y="673.6255" clip-path="url(#clipPath2)" stroke="none">Managed</text>
      <text x="-41.1961" xml:space="preserve" y="710.8755" clip-path="url(#clipPath2)" stroke="none">Resource</text>
      <rect x="-72.3414" y="628.9617" clip-path="url(#clipPath2)" fill="none" width="228.9" rx="4" ry="4" height="104.4215" stroke-width="5"/>
    </g>
    <g fill="rgb(204,255,255)" text-rendering="geometricPrecision" shape-rendering="geometricPrecision" transform="matrix(1,0,0,1,521,98)" stroke="rgb(204,255,255)">
      <rect x="-424.0898" y="-52.9374" clip-path="url(#clipPath2)" width="243" rx="4" ry="4" height="104.4215" stroke="none"/>
    </g>
    <g font-size="32px" stroke-linecap="butt" transform="matrix(1,0,0,1,521,98)" text-rendering="geometricPrecision" shape-rendering="geometricPrecision" font-weight="bold" stroke-miterlimit="1.45">
      <text x="-384.8555" xml:space="preserve" y="-8.2736" clip-path="url(#clipPath2)" stroke="none">Architect</text>
      <text x="-389.5664" xml:space="preserve" y="28.9764" clip-path="url(#clipPath2)" stroke="none">Inventory</text>
      <rect x="-424.0898" y="-52.9374" clip-path="url(#clipPath2)" fill="none" width="243" rx="4" ry="4" height="104.4215" stroke-width="5"/>
    </g>
    <g fill="rgb(204,255,255)" text-rendering="geometricPrecision" shape-rendering="geometricPrecision" transform="matrix(1,0,0,1,521,98)" stroke="rgb(204,255,255)">
      <rect x="-24.9139" y="-52.9374" clip-path="url(#clipPath2)" width="243" rx="4" ry="4" height="104.4215" stroke="none"/>
    </g>
    <g font-size="32px" stroke-linecap="butt" transform="matrix(1,0,0,1,521,98)" text-rendering="geometricPrecision" shape-rendering="geometricPrecision" font-weight="bold" stroke-miterlimit="1.45">
      <text x="14.3205" xml:space="preserve" y="-8.2736" clip-path="url(#clipPath2)" stroke="none">Architect</text>
      <text x="17.4846" xml:space="preserve" y="28.9764" clip-path="url(#clipPath2)" stroke="none">Manager</text>
      <rect x="-24.9139" y="-52.9374" clip-path="url(#clipPath2)" fill="none" width="243" rx="4" ry="4" height="104.4215" stroke-width="5"/>
    </g>
    <g fill="rgb(204,255,255)" text-rendering="geometricPrecision" shape-rendering="geometricPrecision" transform="matrix(1,0,0,1,521,98)" stroke="rgb(204,255,255)">
      <rect x="-423.3352" y="244.572" clip-path="url(#clipPath2)" width="243" rx="4" ry="4" height="104.4215" stroke="none"/>
    </g>
    <g font-size="32px" stroke-linecap="butt" transform="matrix(1,0,0,1,521,98)" text-rendering="geometricPrecision" shape-rendering="geometricPrecision" font-weight="bold" stroke-miterlimit="1.45">
      <text x="-384.1008" xml:space="preserve" y="289.2358" clip-path="url(#clipPath2)" stroke="none">Architect</text>
      <text x="-354.4367" xml:space="preserve" y="326.4858" clip-path="url(#clipPath2)" stroke="none">Client</text>
      <rect x="-423.3352" y="244.572" clip-path="url(#clipPath2)" fill="none" width="243" rx="4" ry="4" height="104.4215" stroke-width="5"/>
    </g>
    <g fill="rgb(255,255,153)" text-rendering="geometricPrecision" shape-rendering="geometricPrecision" transform="matrix(1,0,0,1,521,98)" stroke="rgb(255,255,153)">
      <rect x="-90.2845" y="648.496" clip-path="url(#clipPath2)" width="228.9" rx="4" ry="4" height="104.4215" stroke="none"/>
    </g>
    <g font-size="32px" stroke-linecap="butt" transform="matrix(1,0,0,1,521,98)" text-rendering="geometricPrecision" shape-rendering="geometricPrecision" font-weight="bold" stroke-miterlimit="1.45">
      <text x="-58.4986" xml:space="preserve" y="693.1599" clip-path="url(#clipPath2)" stroke="none">Managed</text>
      <text x="-59.1392" xml:space="preserve" y="730.4099" clip-path="url(#clipPath2)" stroke="none">Resource</text>
      <rect x="-90.2845" y="648.496" clip-path="url(#clipPath2)" fill="none" width="228.9" rx="4" ry="4" height="104.4215" stroke-width="5"/>
    </g>
    <g fill="rgb(255,255,153)" text-rendering="geometricPrecision" shape-rendering="geometricPrecision" transform="matrix(1,0,0,1,521,98)" stroke="rgb(255,255,153)">
      <rect x="-109.3322" y="665.6617" clip-path="url(#clipPath2)" width="228.9" rx="4" ry="4" height="104.4215" stroke="none"/>
    </g>
    <g font-size="32px" stroke-linecap="butt" transform="matrix(1,0,0,1,521,98)" text-rendering="geometricPrecision" shape-rendering="geometricPrecision" font-weight="bold" stroke-miterlimit="1.45">
      <text x="-77.5463" xml:space="preserve" y="710.3256" clip-path="url(#clipPath2)" stroke="none">Managed</text>
      <text x="-78.1869" xml:space="preserve" y="747.5756" clip-path="url(#clipPath2)" stroke="none">Resource</text>
      <rect x="-109.3322" y="665.6617" clip-path="url(#clipPath2)" fill="none" width="228.9" rx="4" ry="4" height="104.4215" stroke-width="5"/>
    </g>
    <g fill="rgb(255,255,153)" text-rendering="geometricPrecision" shape-rendering="geometricPrecision" transform="matrix(1,0,0,1,521,98)" stroke="rgb(255,255,153)">
      <rect x="-128.5799" y="682.2461" clip-path="url(#clipPath2)" width="228.9" rx="4" ry="4" height="104.4215" stroke="none"/>
    </g>
    <g font-size="32px" stroke-linecap="butt" transform="matrix(1,0,0,1,521,98)" text-rendering="geometricPrecision" shape-rendering="geometricPrecision" font-weight="bold" stroke-miterlimit="1.45">
      <text x="-96.794" xml:space="preserve" y="726.9099" clip-path="url(#clipPath2)" stroke="none">Managed</text>
      <text x="-106.9581" xml:space="preserve" y="764.1599" clip-path="url(#clipPath2)" stroke="none">Resources</text>
      <rect x="-128.5799" y="682.2461" clip-path="url(#clipPath2)" fill="none" width="228.9" rx="4" ry="4" height="104.4215" stroke-width="5"/>
    </g>
    <g fill="rgb(204,255,204)" text-rendering="geometricPrecision" shape-rendering="geometricPrecision" transform="matrix(1,0,0,1,521,98)" stroke="rgb(204,255,204)">
      <rect x="-109.3322" y="391.4191" clip-path="url(#clipPath2)" width="291" rx="4" ry="4" height="104.4215" stroke="none"/>
    </g>
    <g font-size="32px" stroke-linecap="butt" transform="matrix(1,0,0,1,521,98)" text-rendering="geometricPrecision" shape-rendering="geometricPrecision" font-weight="bold" stroke-miterlimit="1.45">
      <text x="-67.4885" xml:space="preserve" y="454.7079" clip-path="url(#clipPath2)" stroke="none">Salt Master</text>
      <rect x="-109.3322" y="391.4191" clip-path="url(#clipPath2)" fill="none" width="291" rx="4" ry="4" height="104.4215" stroke-width="5"/>
    </g>
    <g fill="rgb(204,255,255)" text-rendering="geometricPrecision" shape-rendering="geometricPrecision" transform="matrix(1,0,0,1,521,98)" stroke="rgb(204,255,255)">
      <rect x="307.2306" y="244.572" clip-path="url(#clipPath2)" width="243" rx="4" ry="4" height="104.4215" stroke="none"/>
    </g>
    <g font-size="32px" stroke-linecap="butt" transform="matrix(1,0,0,1,521,98)" text-rendering="geometricPrecision" shape-rendering="geometricPrecision" font-weight="bold" stroke-miterlimit="1.45">
      <text x="346.4649" xml:space="preserve" y="289.2358" clip-path="url(#clipPath2)" stroke="none">Architect</text>
      <text x="367.2306" xml:space="preserve" y="326.4858" clip-path="url(#clipPath2)" stroke="none">Engine</text>
      <rect x="307.2306" y="244.572" clip-path="url(#clipPath2)" fill="none" width="243" rx="4" ry="4" height="104.4215" stroke-width="5"/>
    </g>
    <g fill="rgb(204,255,255)" text-rendering="geometricPrecision" shape-rendering="geometricPrecision" transform="matrix(1,0,0,1,521,98)" stroke="rgb(204,255,255)">
      <rect x="-85.3322" y="244.572" clip-path="url(#clipPath2)" width="243" rx="4" ry="4" height="104.4215" stroke="none"/>
    </g>
    <g font-size="32px" stroke-linecap="butt" transform="matrix(1,0,0,1,521,98)" text-rendering="geometricPrecision" shape-rendering="geometricPrecision" font-weight="bold" stroke-miterlimit="1.45">
      <text x="-34.9182" xml:space="preserve" y="307.8608" clip-path="url(#clipPath2)" stroke="none">Salt API</text>
      <rect x="-85.3322" y="244.572" clip-path="url(#clipPath2)" fill="none" width="243" rx="4" ry="4" height="104.4215" stroke-width="5"/>
      <path fill="none" d="M-302.5391 67.9901 L-301.9958 244.5922" stroke-width="5" clip-path="url(#clipPath2)"/>
      <path d="M-302.5898 51.4902 L-311.5344 69.5178 L-293.5345 69.4624 Z" stroke-width="5" clip-path="url(#clipPath2)" stroke="none"/>
      <text x="-279.781" font-size="22px" y="104.7477" clip-path="url(#clipPath2)" font-family="sans-serif" stroke="none" xml:space="preserve">Retreive metadata by</text>
      <text x="-279.781" font-size="22px" y="130.3571" clip-path="url(#clipPath2)" font-family="sans-serif" stroke="none" xml:space="preserve">HTTP request</text>
      <text x="-279.781" font-size="22px" y="155.9665" clip-path="url(#clipPath2)" font-family="sans-serif" stroke="none" xml:space="preserve">to Architect API</text>
      <path fill="none" d="M-9.6227 612.472 L-11.6136 556.2522 L-11.6143 495.8681" stroke-width="5" clip-path="url(#clipPath2)"/>
      <path d="M-9.0388 628.9617 L-0.6814 610.6545 L-18.6702 611.2915 Z" stroke-width="5" clip-path="url(#clipPath2)" stroke="none"/>
      <text x="-307.1533" font-size="22px" y="575.2578" clip-path="url(#clipPath2)" font-family="sans-serif" stroke="none" xml:space="preserve">Command resources</text>
      <text x="-240.745" font-size="22px" y="600.8671" clip-path="url(#clipPath2)" font-family="sans-serif" stroke="none" xml:space="preserve">to apply states</text>
      <path fill="none" d="M67.0665 512.332 L67.114 556.864 L68.3294 628.9442" stroke-width="5" clip-path="url(#clipPath2)"/>
      <path d="M67.0489 495.832 L58.0681 513.8416 L76.0681 513.8224 Z" stroke-width="5" clip-path="url(#clipPath2)" stroke="none"/>
      <text x="109.1154" font-size="22px" y="576.4073" clip-path="url(#clipPath2)" font-family="sans-serif" stroke="none" xml:space="preserve">Return state</text>
      <text x="109.1154" font-size="22px" y="602.0167" clip-path="url(#clipPath2)" font-family="sans-serif" stroke="none" xml:space="preserve">application results</text>
      <path fill="none" d="M-109.3109 459.7879 L-116.3052 459.4556 L-140.7457 455.9597 L-164.229 450.1747 L-186.7551 442.1005 L-208.324 431.7371 L-228.9357 419.0845 L-248.5903 404.1428 L-267.2877 386.9119 L-285.0279 367.3918 L-289.1095 362.0878" stroke-width="5" clip-path="url(#clipPath2)"/>
      <path d="M-299.1722 349.0114 L-295.3272 368.7654 L-281.0621 357.7878 Z" stroke-width="5" clip-path="url(#clipPath2)" stroke="none"/>
      <text x="-407.4046" font-size="22px" y="457.4254" clip-path="url(#clipPath2)" font-family="sans-serif" stroke="none" xml:space="preserve">Pillar and Tops</text>
      <text x="-373.76" font-size="22px" y="483.0348" clip-path="url(#clipPath2)" font-family="sans-serif" stroke="none" xml:space="preserve">backends</text>
      <path fill="none" d="M181.6918 453.8727 L183.0215 453.7531 L206.0975 450.1203 L228.7738 444.9674 L251.0501 438.2946 L272.9266 430.1018 L294.4032 420.3889 L315.4799 409.1561 L336.1568 396.4033 L356.4338 382.1304 L376.311 366.3375 L383.4559 359.9866" stroke-width="5" clip-path="url(#clipPath2)"/>
      <path d="M395.7882 349.0247 L376.3556 354.2564 L388.314 367.7098 Z" stroke-width="5" clip-path="url(#clipPath2)" stroke="none"/>
      <text x="339.5463" font-size="22px" y="442.2712" clip-path="url(#clipPath2)" font-family="sans-serif" stroke="none" xml:space="preserve">Listen to state apply</text>
      <text x="326.7953" font-size="22px" y="467.8806" clip-path="url(#clipPath2)" font-family="sans-serif" stroke="none" xml:space="preserve">results from event bus</text>
      <path fill="none" d="M428.8785 244.5397 L429.5504 230.5257 L428.4734 199.5258 L424.7234 170.8214 L418.3003 144.4125 L409.204 120.2992 L397.4347 98.4814 L382.9922 78.9592 L365.8766 61.7324 L346.0879 46.8013 L323.626 34.1656 L298.491 23.8255 L270.683 15.7809 L240.2018 10.0319 L234.4993 9.4379" stroke-width="5" clip-path="url(#clipPath2)"/>
      <path d="M218.0881 7.7284 L235.0588 18.5449 L236.9236 0.6417 Z" stroke-width="5" clip-path="url(#clipPath2)" stroke="none"/>
      <text x="374.534" font-size="22px" y="-12.9214" clip-path="url(#clipPath2)" font-family="sans-serif" stroke="none" xml:space="preserve">Send results by</text>
      <text x="374.534" font-size="22px" y="12.688" clip-path="url(#clipPath2)" font-family="sans-serif" stroke="none" xml:space="preserve">HTTP request</text>
      <text x="374.534" font-size="22px" y="38.2974" clip-path="url(#clipPath2)" font-family="sans-serif" stroke="none" xml:space="preserve">to Architect API</text>
      <path fill="none" d="M17.7088 228.0878 L17.7087 51.4688" stroke-width="5" clip-path="url(#clipPath2)"/>
      <path d="M17.7088 244.5878 L26.7088 226.5878 L8.7088 226.5878 Z" stroke-width="5" clip-path="url(#clipPath2)" stroke="none"/>
      <text x="51.4885" font-size="22px" y="105.5846" clip-path="url(#clipPath2)" font-family="sans-serif" stroke="none" xml:space="preserve">Send commands by</text>
      <text x="51.4885" font-size="22px" y="131.1939" clip-path="url(#clipPath2)" font-family="sans-serif" stroke="none" xml:space="preserve">HTTP requests</text>
      <text x="51.4885" font-size="22px" y="156.8033" clip-path="url(#clipPath2)" font-family="sans-serif" stroke="none" xml:space="preserve">to Salt API</text>
      <path fill="none" d="M36.1678 349.0181 L36.1678 376.2559" stroke-width="4" clip-path="url(#clipPath2)"/>
      <path d="M36.1678 391.3809 L44.4178 374.8809 L27.9178 374.8809 Z" stroke-width="4" clip-path="url(#clipPath2)" stroke="none"/>
    </g>
  </g>
</svg>
