<?xml version="1.0" encoding="UTF-8" standalone="no"?>
<!-- Created with Inkscape (http://www.inkscape.org/) -->

<svg
   xmlns:dc="http://purl.org/dc/elements/1.1/"
   xmlns:cc="http://creativecommons.org/ns#"
   xmlns:rdf="http://www.w3.org/1999/02/22-rdf-syntax-ns#"
   xmlns:svg="http://www.w3.org/2000/svg"
   xmlns="http://www.w3.org/2000/svg"
   xmlns:sodipodi="http://sodipodi.sourceforge.net/DTD/sodipodi-0.dtd"
   xmlns:inkscape="http://www.inkscape.org/namespaces/inkscape"
   id="svg2"
   version="1.1"
   inkscape:version="0.91 r13725"
   xml:space="preserve"
   width="586.65576"
   height="283.09213"
   viewBox="0 0 586.65576 283.09213"
   sodipodi:docname="openstack.svg"><metadata
     id="metadata8"><rdf:RDF><cc:Work
         rdf:about=""><dc:format>image/svg+xml</dc:format><dc:type
           rdf:resource="http://purl.org/dc/dcmitype/StillImage" /><dc:title></dc:title></cc:Work></rdf:RDF></metadata><defs
     id="defs6"><clipPath
       clipPathUnits="userSpaceOnUse"
       id="clipPath16"><path
         d="M 0,612 792,612 792,0 0,0 0,612 Z"
         id="path18"
         inkscape:connector-curvature="0" /></clipPath><clipPath
       clipPathUnits="userSpaceOnUse"
       id="clipPath72"><path
         d="m 331.025,424.873 116.238,0 0,-113.761 -116.238,0 0,113.761 z"
         id="path74"
         inkscape:connector-curvature="0" /></clipPath></defs><sodipodi:namedview
     pagecolor="#ffffff"
     bordercolor="#666666"
     borderopacity="1"
     objecttolerance="10"
     gridtolerance="10"
     guidetolerance="10"
     inkscape:pageopacity="0"
     inkscape:pageshadow="2"
     inkscape:window-width="913"
     inkscape:window-height="506"
     id="namedview4"
     showgrid="false"
     inkscape:zoom="0.30849673"
     inkscape:cx="292.18275"
     inkscape:cy="134.50087"
     inkscape:window-x="0"
     inkscape:window-y="55"
     inkscape:window-maximized="0"
     inkscape:current-layer="g10"
     fit-margin-top="0"
     fit-margin-left="0"
     fit-margin-right="0"
     fit-margin-bottom="0" /><g
     id="g10"
     inkscape:groupmode="layer"
     inkscape:label="OpenStack-Logo-Vertical"
     transform="matrix(1.25,0,0,-1.25,-202.81725,531.09125)"><g
       id="g12"><g
         id="g14"
         clip-path="url(#clipPath16)"><g
           id="g20"
           transform="translate(624.6154,215.9555)"><path
             d="m 0,0 c -2.896,0 -5.252,2.356 -5.252,5.252 0,2.897 2.356,5.252 5.252,5.252 2.896,0 5.252,-2.355 5.252,-5.252 C 5.252,2.356 2.896,0 0,0 m 6.963,5.252 c 0,3.84 -3.123,6.964 -6.963,6.964 -3.84,0 -6.963,-3.124 -6.963,-6.964 0,-3.84 3.123,-6.963 6.963,-6.963 3.84,0 6.963,3.123 6.963,6.963"
             style="fill:#4e4640;fill-opacity:1;fill-rule:nonzero;stroke:none"
             id="path22"
             inkscape:connector-curvature="0" /></g><g
           id="g24"
           transform="translate(625.804,222.4308)"><path
             d="m 0,0 c 0,-0.614 -0.39,-1.024 -1.112,-1.024 l -1.042,0 0,2.058 1.013,0 C -0.419,1.034 0,0.692 0,0.01 L 0,0 Z m 1.424,0.039 0,0.039 c 0,0.673 -0.205,1.209 -0.576,1.58 C 0.419,2.086 -0.214,2.31 -1.004,2.31 l -2.563,0 0,-6.823 1.413,0 0,2.242 0.886,0 1.258,-2.242 1.619,0 -1.453,2.535 c 0.751,0.331 1.268,0.984 1.268,2.017"
             style="fill:#4e4640;fill-opacity:1;fill-rule:nonzero;stroke:none"
             id="path26"
             inkscape:connector-curvature="0" /></g><g
           id="g28"
           transform="translate(174.1108,241.7354)"><path
             d="m 0,0 0,0.629 c 0,10.39 5.352,18.048 13.641,18.048 8.079,0 13.851,-7.765 13.851,-18.152 l 0,-0.63 c 0,-10.387 -5.352,-18.152 -13.641,-18.152 C 5.771,-18.257 0,-10.388 0,0 m 39.348,-0.209 0,0.945 c 0,16.474 -10.807,28.435 -25.497,28.435 -14.796,0 -25.708,-12.172 -25.708,-28.542 l 0,-0.943 c 0,-16.474 10.808,-28.331 25.498,-28.331 14.795,0 25.707,12.066 25.707,28.436"
             style="fill:#4e4640;fill-opacity:1;fill-rule:nonzero;stroke:none"
             id="path30"
             inkscape:connector-curvature="0" /></g><g
           id="g32"
           transform="translate(231.8147,241.5263)"><path
             d="m 0,0 0,1.049 c 0,10.913 6.086,17.837 13.221,17.837 7.135,0 12.906,-6.82 12.906,-17.941 l 0,-0.945 c 0,-11.123 -5.666,-17.839 -12.906,-17.839 C 6.086,-17.839 0,-10.912 0,0 m 38.09,-0.211 0,1.469 C 38.09,20.042 27.596,29.38 16.474,29.38 8.499,29.38 3.672,24.763 0.21,19.411 l 0,8.92 -11.857,0 0,-71.458 11.857,0 0,24.239 c 3.358,-4.931 8.185,-9.443 16.264,-9.443 11.227,0 21.616,9.443 21.616,28.12"
             style="fill:#4e4640;fill-opacity:1;fill-rule:nonzero;stroke:none"
             id="path34"
             inkscape:connector-curvature="0" /></g><g
           id="g36"
           transform="translate(300.0859,260.9371)"><path
             d="m 0,0 c 6.925,0 10.912,-6.4 11.542,-15.214 l -23.504,0 C -11.122,-5.771 -6.505,0 0,0 m 21.196,-39.244 -6.191,7.347 c -3.673,-3.568 -7.555,-5.877 -12.801,-5.877 -7.24,0 -13.012,5.037 -14.061,14.375 l 34.836,0 c 0.105,1.679 0.105,3.359 0.105,4.093 C 23.084,-2.623 15.11,9.97 0,9.97 c -13.641,0 -23.714,-11.962 -23.714,-28.647 l 0,-0.838 c 0,-17.419 11.122,-28.331 25.393,-28.331 8.29,0 14.48,3.252 19.517,8.602"
             style="fill:#4e4640;fill-opacity:1;fill-rule:nonzero;stroke:none"
             id="path38"
             inkscape:connector-curvature="0" /></g><g
           id="g40"
           transform="translate(357.9874,270.9066)"><path
             d="m 0,0 c -7.555,0 -12.067,-4.303 -15.215,-9.234 l 0,8.185 -11.857,0 0,-55.613 11.857,0 0,33.682 c 0,7.66 4.303,12.277 10.493,12.277 6.296,0 9.968,-4.302 9.968,-12.066 l 0,-33.893 11.857,0 0,37.249 C 17.103,-7.556 10.702,0 0,0"
             style="fill:#4e4640;fill-opacity:1;fill-rule:nonzero;stroke:none"
             id="path42"
             inkscape:connector-curvature="0" /></g><g
           id="g44"
           transform="translate(422.8864,230.0894)"><path
             d="m 0,0 0,0.105 c 0,8.709 -6.506,12.695 -15.11,16.578 -6.506,2.939 -10.913,4.826 -10.913,8.499 l 0,0.211 c 0,3.043 2.623,5.455 7.03,5.455 4.407,0 9.024,-2.099 13.221,-4.931 l 5.037,8.709 c -5.246,3.777 -11.857,5.98 -18.048,5.98 -10.387,0 -18.362,-6.295 -18.362,-16.263 l 0,-0.211 c 0,-9.127 6.925,-12.906 15.215,-16.472 6.61,-2.834 10.912,-4.617 10.912,-8.605 l 0,-0.104 c 0,-3.463 -2.833,-6.087 -7.765,-6.087 -4.931,0 -10.283,2.414 -15.319,6.505 l -5.562,-8.498 c 6.401,-5.351 14.061,-7.765 20.671,-7.765 C -8.289,-16.894 0,-10.912 0,0"
             style="fill:#4e4640;fill-opacity:1;fill-rule:nonzero;stroke:none"
             id="path46"
             inkscape:connector-curvature="0" /></g><g
           id="g48"
           transform="translate(459.6009,215.8183)"><path
             d="m 0,0 0,9.759 c -1.994,-1.05 -4.092,-1.574 -6.401,-1.574 -3.778,0 -5.981,1.783 -5.981,6.086 l 0,29.589 12.487,0 0,10.179 -12.487,0 0,15.005 -11.857,0 0,-15.005 -6.086,0 1.948,-10.179 4.138,0 0,-32.003 c 0,-10.808 6.191,-14.271 14.376,-14.271 3.987,0 7.134,0.945 9.863,2.414"
             style="fill:#4e4640;fill-opacity:1;fill-rule:nonzero;stroke:none"
             id="path50"
             inkscape:connector-curvature="0" /></g><g
           id="g52"
           transform="translate(499.1564,232.9215)"><path
             d="m 0,0 c 0,-6.295 -5.246,-10.912 -12.067,-10.808 -5.141,0.105 -9.023,3.254 -9.023,8.814 l 0,0.211 c 0,5.875 3.987,9.339 10.807,9.339 3.988,0 7.555,-0.841 10.283,-1.994 L 0,0 Z m 5.876,31.899 c -3.567,3.672 -9.128,5.666 -16.368,5.666 -7.45,0 -13.012,-1.785 -18.364,-4.408 l 3.358,-9.443 c 3.673,1.679 8.08,3.359 13.431,3.359 7.556,0 11.962,-3.884 11.962,-11.333 l 0,-2.309 c -3.777,1.26 -7.554,2.203 -12.801,2.203 -11.752,0 -19.727,-5.875 -19.727,-17.837 l 0,-0.525 c 0,-10.807 7.765,-16.998 16.999,-16.998 7.24,0 12.172,3.147 15.424,7.869 l 0,-6.82 11.647,0 0,34.522 c 0,6.924 -1.888,12.382 -5.561,16.054"
             style="fill:#4e4640;fill-opacity:1;fill-rule:nonzero;stroke:none"
             id="path54"
             inkscape:connector-curvature="0" /></g><g
           id="g56"
           transform="translate(560.9954,221.4845)"><path
             d="m 0,0 -6.4,7.869 c -3.253,-3.252 -6.506,-5.666 -11.332,-5.666 -8.081,0 -13.746,7.24 -13.746,18.048 l 0,0.525 c 0,10.494 5.665,17.943 13.431,17.943 5.036,0 8.289,-2.519 11.227,-5.562 l 6.611,8.71 c -4.617,4.617 -9.864,7.555 -17.838,7.555 -14.586,0 -25.393,-11.961 -25.393,-28.542 l 0,-1.049 c 0,-16.579 10.493,-28.225 24.973,-28.225 8.499,0 14.06,3.461 18.467,8.394"
             style="fill:#4e4640;fill-opacity:1;fill-rule:nonzero;stroke:none"
             id="path58"
             inkscape:connector-curvature="0" /></g><g
           id="g60"
           transform="translate(597.2872,243.1089)"><path
             d="m 0,0 -8.323,-8.946 11.164,-19.918 13.745,0 L 0,0 Z"
             style="fill:#4e4640;fill-opacity:1;fill-rule:nonzero;stroke:none"
             id="path62"
             inkscape:connector-curvature="0" /></g><g
           id="g64"
           transform="translate(599.2875,269.8575)"><path
             d="m 0,0 -18.992,-24.45 0,44.596 -11.857,0 0,-75.759 11.857,0 0,16.054 L 14.061,0 0,0 Z"
             style="fill:#4e4640;fill-opacity:1;fill-rule:nonzero;stroke:none"
             id="path66"
             inkscape:connector-curvature="0" /></g><g
           id="g68"><g
             id="g70" /><g
             id="g76"><g
               clip-path="url(#clipPath72)"
               id="g78"
               style="opacity:0.97999603"><g
                 transform="translate(436.463,424.8733)"
                 id="g80"><path
                   d="m 0,0 -94.638,0 c -5.94,0 -10.8,-4.86 -10.8,-10.8 l 0,-25.45 26.25,0 0,4.159 c 0,3.226 2.616,5.841 5.842,5.841 l 52.055,0 c 3.226,0 5.841,-2.615 5.841,-5.841 l 0,-4.159 26.25,0 0,25.45 C 10.8,-4.86 5.94,0 0,0"
                   style="fill:#ed1844;fill-opacity:1;fill-rule:nonzero;stroke:none"
                   id="path82"
                   inkscape:connector-curvature="0" /></g><g
                 transform="translate(421.0132,343.2035)"
                 id="g84"><path
                   d="m 0,0 c 0,-3.226 -2.615,-5.842 -5.841,-5.842 l -52.055,0 c -3.226,0 -5.842,2.616 -5.842,5.842 l 0,4.158 -26.25,0 0,-25.449 c 0,-5.941 4.86,-10.8 10.8,-10.8 l 94.638,0 c 5.94,0 10.8,4.859 10.8,10.8 l 0,25.449 L 0,4.158 0,0 Z"
                   style="fill:#ed1844;fill-opacity:1;fill-rule:nonzero;stroke:none"
                   id="path86"
                   inkscape:connector-curvature="0" /></g><path
                 d="m 357.275,381.118 -26.25,0 0,-26.25 26.25,0 0,26.25 z"
                 style="fill:#ed1844;fill-opacity:1;fill-rule:nonzero;stroke:none"
                 id="path88"
                 inkscape:connector-curvature="0" /><path
                 d="m 447.263,381.118 -26.25,0 0,-26.25 26.25,0 0,26.25 z"
                 style="fill:#ed1844;fill-opacity:1;fill-rule:nonzero;stroke:none"
                 id="path90"
                 inkscape:connector-curvature="0" /></g></g></g></g></g></g></svg>