<svg width="2500" height="2275" viewBox="0 0 256 233" xmlns="http://www.w3.org/2000/svg" preserveAspectRatio="xMinYMin meet"><path d="M138.927 70.876V30.908L197.29 60.43l.004 57.783-23.212-11.2v-18.16l-35.154-17.977" fill="#4396B9"/><path d="M216.112 108.806l15.124 7.733-57.012 28.51-.143-38.036 23.212 11.2 18.82-9.407" fill="#B8DDE8"/><path d="M138.927 46.887l-23.792 11.82 23.792 12.17v-23.99" fill="#75BED5"/><path d="M116.284 174.323l-.487-57.574-57.894-28.817L0 59.338v58.41l.019.01.559 56.57 55.987 27.995 1.68.839.117.056 57.932 28.895v-57.785l-.01-.005" fill="#4396B9"/><path d="M231.236 116.54l-57.155 28.583v-56.27l-58.284 27.896.497 58.787v56.577l57.787-28.895v-.317l57.155-28.573v-57.789" fill="#75BED5"/><path d="M255.083 89.323l-57.79 28.89V60.43l57.79-28.897v57.79" fill="#75BED5"/><path d="M138.927 30.908L197.29 60.43l57.794-28.897-58.945-30.15-39.823 20.551L113.454.01l-58.11 30.255L0 59.338l57.903 28.594 57.894 28.817 58.284-27.895-58.946-30.146-.76.392-.147-.074.907-.318 23.792-11.82v-15.98" fill="#B8DDE8"/></svg>